<mxfile host="app.diagrams.net" modified="2023-04-23T10:59:06.540Z" agent="Mozilla/5.0 (Macintosh; Intel Mac OS X 10_15_7) AppleWebKit/537.36 (KHTML, like Gecko) Chrome/112.0.0.0 Safari/537.36" version="21.2.0" etag="HRXQPYEIWrFAWJIu3rxd" type="github">
  <diagram name="第 1 页" id="4kmYSQ9I4CZv4WDx_Jcp">
    <mxGraphModel>
      <root>
        <mxCell id="0" />
        <mxCell id="1" parent="0" />
      </root>
    </mxGraphModel>
  </diagram>
</mxfile>
